<svg width="45" height="42" viewBox="0 0 45 42" fill="none" xmlns="http://www.w3.org/2000/svg">
<path d="M6.9 2C9.737 5.02 11.156 8.94 11.156 13.764C11.156 21 4.999 26.538 3.969 30.5C3.282 33.141 2.959 36.308 2.999 40" stroke="black" stroke-width="4" stroke-linecap="round"/>
<path d="M38.256 2C35.418 5.02 33.999 8.94 33.999 13.764C34 21 40.156 26.538 41.186 30.5C41.873 33.141 42.196 36.308 42.156 40" stroke="black" stroke-width="4" stroke-linecap="round"/>
<path d="M5.244 27.837C11.769 31.967 17.694 34.032 23.021 34.032C28.347 34.032 33.98 31.967 39.919 27.837" stroke="black" stroke-width="4" stroke-linecap="round"/>
<path d="M23 28C23.663 28 24.2989 27.7366 24.7678 27.2678C25.2366 26.7989 25.5 26.163 25.5 25.5C25.5 24.837 25.2366 24.2011 24.7678 23.7322C24.2989 23.2634 23.663 23 23 23C22.337 23 21.7011 23.2634 21.2322 23.7322C20.7634 24.2011 20.5 24.837 20.5 25.5C20.5 26.163 20.7634 26.7989 21.2322 27.2678C21.7011 27.7366 22.337 28 23 28V28Z" fill="black"/>
</svg>
